<?xml version="1.0" encoding="UTF-8"?>
<!DOCTYPE svg PUBLIC "-//W3C//DTD SVG 1.1//EN" "http://www.w3.org/Graphics/SVG/1.1/DTD/svg11.dtd">
<!-- Creator: CorelDRAW -->
<svg xmlns="http://www.w3.org/2000/svg" xml:space="preserve" width="28.6037mm" height="28.3089mm" version="1.1" shape-rendering="geometricPrecision" text-rendering="geometricPrecision" image-rendering="optimizeQuality" fill-rule="evenodd" clip-rule="evenodd"
viewBox="0 0 2785.45 2756.75"
 xmlns:xlink="http://www.w3.org/1999/xlink"
 xmlns:xodm="http://www.corel.com/coreldraw/odm/2003">
 <g id="Camada_x0020_1">
  <metadata id="CorelCorpID_0Corel-Layer"/>
  <path fill="black" fill-rule="nonzero" d="M1193.23 0c-673.79,97.06 -1193.23,678.13 -1193.23,1378.38 0,700.26 519.44,1281.31 1193.23,1378.37l0 -505.5c-397.82,-90.99 -695.84,-447.98 -695.84,-872.86 0,-424.88 298.01,-781.86 695.84,-872.85l0 -505.52z"/>
  <path fill="#CCCCCC" fill-rule="nonzero" d="M2785.45 1378.38c0,-700.25 -519.44,-1281.32 -1193.25,-1378.38l0 505.52c397.82,90.99 695.84,447.97 695.84,872.85 0,424.88 -298.01,781.87 -695.84,872.86l0 505.5c673.81,-97.06 1193.25,-678.11 1193.25,-1378.37z"/>
 </g>
</svg>
